# AST/ASF file generated using VICON BodyLanguage
# -----------------------------------------------
:version 1.10
:name VICON
:units
  mass 1.0
  length 0.45
  angle deg
:documentation
   .ast/.asf automatically generated from VICON data using
   VICON BodyBuilder and BodyLanguage model FoxedUp or BRILLIANT.MOD
:root
   order TX TY TZ RX RY RZ
   axis XYZ
   position 0 0 0  
   orientation 0 0 0 
:bonedata
  begin
     id 1 
     name lhipjoint
     direction 0.722297 -0.617336 0.311742 
     length 2.6635 
     axis 0 0 0  XYZ
  end
  begin
     id 2 
     name lfemur
     direction 0.34202 -0.939693 0  
     length 7.39349  
     axis 0 0 20  XYZ
    dof rx ry rz
    limits (-160.0 20.0)
           (-70.0 70.0)
           (-60.0 70.0)
  end
  begin
     id 3 
     name ltibia
     direction 0.34202 -0.939693 0   
     length 7.36294   
     axis 0 0 20   XYZ
    dof rx
    limits (-10.0 170.0)
  end
  begin
     id 4 
     name lfoot
     direction 0.104879 -0.288152 0.951824   
     length 2.16981   
     axis -90 7.62852e-016 20   XYZ
    dof rx rz
    limits (-45.0 90.0)
           (-70.0 20.0)
  end
  begin
     id 5 
     name ltoes
     direction 1.53586e-011 -4.21895e-011 1   
     length 1.08218   
     axis -90 7.62852e-016 20   XYZ
    dof rx
    limits (-90.0 20.0)
  end
  begin
     id 6 
     name rhipjoint
     direction -0.75102 -0.589393 0.297631   
     length 2.78977  
     axis 0 0 0  XYZ 
  end
  begin
     id 7 
     name rfemur
     direction -0.34202 -0.939693 0   
     length 7.46076   
     axis 0 0 -20   XYZ
    dof rx ry rz
    limits (-160.0 20.0)
           (-70.0 70.0)
           (-70.0 60.0)
  end
  begin
     id 8 
     name rtibia
     direction -0.34202 -0.939693 0   
     length 7.31726   
     axis 0 0 -20   XYZ
    dof rx
    limits (-10.0 170.0)
 end
 begin
     id 9 
     name rfoot
     direction -0.107991 -0.296704 0.948844   
     length 2.09388  
     axis -90 -7.62852e-016 -20   XYZ
    dof rx rz
    limits (-45.0 90.0)
           (-20.0 70.0)
  end
  begin
     id 10 
     name rtoes
     direction -1.53559e-011 -4.21911e-011 1   
     length 1.04433   
     axis -90 -7.62852e-016 -20   XYZ
    dof rx
    limits (-90.0 20.0)
  end
  begin
     id 11 
     name lowerback
     direction 0.0165164 0.98272 0.184358   
     length 1.71896   
     axis 0 0 0   XYZ
    dof rx ry rz
    limits (-20.0 45.0)
           (-30.0 30.0)
           (-30.0 30.0)
  end
  begin
     id 12 
     name upperback
     direction -0.00887249 0.992297 0.123566   
     length 1.71504   
     axis 0 0 0   XYZ
    dof rx ry rz
    limits (-20.0 45.0)
           (-30.0 30.0)
           (-30.0 30.0)
  end
  begin
     id 13 
     name thorax
     direction -0.0157026 0.998908 0.0440032   
     length 1.77022   
     axis 0 0 0   XYZ
    dof rx ry rz
    limits (-20.0 45.0)
           (-30.0 30.0)
           (-30.0 30.0)
  end
  begin
     id 14 
     name lowerneck
     direction -0.0238856 0.998137 0.0561411   
     length 1.89341   
     axis 0 0 0   XYZ
    dof rx ry rz
    limits (-20.0 45.0)
           (-30.0 30.0)
           (-30.0 30.0)
  end
  begin
     id 15 
     name upperneck
     direction 0.0276574 0.952253 -0.304056   
     length 1.86999   
     axis 0 0 0   XYZ
    dof rx ry rz
    limits (-20.0 45.0)
           (-30.0 30.0)
           (-30.0 30.0)
  end
  begin
     id 16
     name head
     direction 0.00800083 0.994258 -0.106712  
     length 1.91492  
     axis 0 0 0   XYZ
    dof rx ry rz
    limits (-20.0 45.0)
           (-30.0 30.0)
           (-30.0 30.0)
  end
  begin
     id 17 
     name lclavicle
     direction 0.97203 0.225407 0.06595  
     length 3.34889  
     axis 0 0 0   XYZ
    dof ry rz
    limits (-20.0 10.0)
           (0.0 20.0)
  end
  begin
     id 18 
     name lhumerus
     direction 1 -4.48973e-011 2.20267e-027   
     length 4.85645   
     axis 180 -30 -90   XYZ
    dof rx ry rz
    limits (-60.0 90.0)
           (-90.0 90.0)
           (-90.0 90.0)
  end
  begin
     id 19
     name lradius
     direction 1 -4.4897e-011 4.60472e-027   
     length 2.79874   
     axis 180 -30 -90   XYZ
    dof rx
    limits (-10.0 170.0)
  end
  begin
     id 20
     name lwrist
     direction 1 -4.48952e-011 1.14928e-026   
     length 1.39937   
     axis -6.29373e-015 90 90   XYZ
    dof ry
    limits (-180.0 0.0)
 end
  begin
     id 21 
     name lhand
     direction 1 -4.48967e-011 2.29886e-026   
     length 0.573398   
     axis -1.46689e-014 90 90   XYZ
    dof rx rz
    limits (-90.0 90.0)
           (-45.0 45.0)
  end
  begin
     id 22 
     name lfingers
     direction 1 -4.48955e-011 4.59726e-026   
     length 0.462289   
     axis -2.93383e-014 90 90   XYZ
    dof rx
    limits (0.0 90.0)
  end
  begin
     id 23
     name lthumb
     direction 0.707107 -6.34866e-011 0.707107   
     length 0.663757   
     axis -90 45 5.69224e-014   XYZ
    dof rx rz
    limits (-45.0 45.0)
           (-45.0 45.0)
  end
  begin
     id 24 
     name rclavicle
     direction -0.981571 0.157346 0.108443   
     length 3.35257  
     axis 0 0 0   XYZ 
    dof ry rz
    limits (-10.0 20.0)
           (-20.0 0.0)
  end
  begin
     id 25 
     name rhumerus
     direction -1 -4.48967e-011 8.58308e-029  
     length 4.67018   
     axis 180 30 90   XYZ
    dof rx ry rz
    limits (-90.0 60.0)
           (-90.0 90.0)
           (-90.0 90.0)
  end
  begin
     id 26 
     name rradius
     direction -1 -4.48958e-011 4.52548e-027   
     length 2.65534   
     axis 180 30 90   XYZ
    dof rx
    limits (-10.0 170.0)
  end
  begin
     id 27 
     name rwrist
     direction -1 -4.48977e-011 1.14952e-026   
     length 1.32767   
     axis -6.29373e-015 -90 -90   XYZ
    dof ry
    limits (-180.0 0.0)
  end
  begin
     id 28
     name rhand
     direction -1 -4.48924e-011 2.29804e-026   
     length 0.594069   
     axis -1.46689e-014 -90 -90   XYZ
    dof rx rz
    limits (-90.0 90.0)
           (-45.0 45.0)
  end
  begin
     id 29
     name rfingers
     direction -1 -4.48998e-011 4.59888e-026   
     length 0.478954   
     axis -2.93383e-014 -90 -90   XYZ
    dof rx
    limits (0.0 90.0)
  end
  begin
     id 30
     name rthumb
     direction -0.707107 -6.34933e-011 0.707107   
     length 0.687685   
     axis -90 -45 -5.69224e-014   XYZ
    dof rx rz
    limits (-45.0 45.0)
           (-45.0 45.0)
  end
:hierarchy
  begin
    root lhipjoint rhipjoint lowerback
    lhipjoint lfemur
    lfemur ltibia
    ltibia lfoot
    lfoot ltoes
    rhipjoint rfemur
    rfemur rtibia
    rtibia rfoot
    rfoot rtoes
    lowerback upperback
    upperback thorax
    thorax lowerneck lclavicle rclavicle
    lowerneck upperneck
    upperneck head
    lclavicle lhumerus
    lhumerus lradius
    lradius lwrist
    lwrist lhand lthumb
    lhand lfingers
    rclavicle rhumerus
    rhumerus rradius
    rradius rwrist
    rwrist rhand rthumb
    rhand rfingers
  end

#!OML:ASF E:\pregnant2\Project 1\Capture day 1\Session 1\pregnant2.ASF
:FULLY-SPECIFIED
:DEGREES
541
root -6.22192 7.49431 23.2345 22.6517 22.6429 -22.838
lowerback 4.35871 4.01635 0.182731
upperback -2.95527 4.978 -9.44402
thorax -4.68394 2.33343 -10.5908
lowerneck -18.2203 4.97346 3.31205
upperneck 30.2287 6.27329 0.482138
head 13.2963 3.21791 0.67365
rclavicle -9.85972e-014 7.31528e-014
rhumerus 23.4337 27.3218 -66.8895
rradius 29.5504
rwrist 23.3974
rhand -2.75194 -4.74522
rfingers 7.12502
rthumb 22.952 -33.399
lclavicle -9.85972e-014 7.31528e-014
lhumerus -24.9079 14.1852 39.1154
lradius 21.9666
lwrist -2.89989
lhand -27.0733 38.4116
lfingers 7.12502
lthumb -0.490924 68.3908
rfemur -108.264 -5.87913 62.8199
rtibia 149.782
rfoot -17.437 -6.75466
rtoes -22.1822
lfemur -148.366 27.0276 -36.2475
ltibia 153.385
lfoot -26.2136 -12.6607
ltoes -10.6041
542
root -6.2254 7.4935 23.2276 22.3959 22.791 -23.1555
lowerback 4.30249 4.04186 0.0755935
upperback -3.00049 5.00138 -9.53404
thorax -4.69728 2.34646 -10.6293
lowerneck -18.2099 4.95061 3.36296
upperneck 30.191 6.1855 0.60444
head 13.2743 3.20354 0.69682
rclavicle -1.59028e-014 6.04305e-014
rhumerus 23.5293 26.916 -66.8197
rradius 29.562
rwrist 23.2819
rhand -2.56356 -4.63813
rfingers 7.12502
rthumb 23.1328 -33.2693
lclavicle -1.59028e-014 6.04305e-014
lhumerus -24.7715 14.3751 38.3469
lradius 21.9649
lwrist -2.80622
lhand -26.9609 38.3614
lfingers 7.12502
lthumb -0.382352 68.3408
rfemur -108.081 -5.89169 63.0262
rtibia 149.693
rfoot -17.3338 -6.70653
rtoes -22.1505
lfemur -148.586 27.2126 -36.2008
ltibia 153.351
lfoot -26.1939 -12.8827
ltoes -10.7091
543
root -6.22835 7.4924 23.2202 22.1342 22.9333 -23.4723
lowerback 4.25144 4.06924 -0.0368395
upperback -3.04535 5.02669 -9.62391
thorax -4.71334 2.36054 -10.6651
lowerneck -18.1933 4.92179 3.41553
upperneck 30.1487 6.09163 0.71796
head 13.2497 3.18557 0.714996
rclavicle -8.5875e-014 -1.27222e-014
rhumerus 23.6189 26.4769 -66.7802
rradius 29.5632
rwrist 23.1719
rhand -2.4598 -4.57973
rfingers 7.12502
rthumb 23.2323 -33.1984
lclavicle -8.5875e-014 -1.27222e-014
lhumerus -24.6157 14.5265 37.5926
lradius 21.9663
lwrist -2.73714
lhand -26.852 38.3233
lfingers 7.12502
lthumb -0.277167 68.3029
rfemur -107.901 -5.92729 63.2332
rtibia 149.605
rfoot -17.2441 -6.63929
rtoes -22.0764
lfemur -148.787 27.3931 -36.1415
ltibia 153.308
lfoot -26.1905 -13.1028
ltoes -10.8768
544
root -6.23067 7.49051 23.2123 21.8708 23.0649 -23.7911
lowerback 4.19978 4.09929 -0.151743
upperback -3.09081 5.05543 -9.71465
thorax -4.72925 2.37644 -10.7008
lowerneck -18.1807 4.88985 3.46057
upperneck 30.1071 5.99416 0.836309
head 13.2258 3.16576 0.735827
rclavicle -1.62208e-013 1.11319e-013
rhumerus 23.713 26.0236 -66.7571
rradius 29.5562
rwrist 23.0407
rhand -2.46374 -4.59233
rfingers 7.12502
rthumb 23.2285 -33.2114
lclavicle -1.62208e-013 1.11319e-013
lhumerus -24.4437 14.6391 36.851
lradius 21.9748
lwrist -2.69887
lhand -26.7455 38.3128
lfingers 7.12502
lthumb -0.174321 68.2925
rfemur -107.726 -5.96739 63.4314
rtibia 149.523
rfoot -17.1583 -6.55255
rtoes -21.974
lfemur -148.99 27.5915 -36.1032
ltibia 153.272
lfoot -26.2182 -13.3288
ltoes -11.0444
545
root -6.23245 7.48741 23.2041 21.6078 23.1846 -24.1113
lowerback 4.13955 4.13318 -0.273456
upperback -3.13651 5.08934 -9.80616
thorax -4.74016 2.39537 -10.7328
lowerneck -18.176 4.85437 3.49328
upperneck 30.0701 5.89147 0.96741
head 13.2046 3.14394 0.763122
rclavicle 8.5875e-014 -1.01778e-013
rhumerus 23.8142 25.5332 -66.7541
rradius 29.5347
rwrist 22.9281
rhand -2.52296 -4.61107
rfingers 7.12502
rthumb 23.1717 -33.2373
lclavicle 8.5875e-014 -1.01778e-013
lhumerus -24.2563 14.6862 36.1259
lradius 21.9992
lwrist -2.65498
lhand -26.6418 38.3364
lfingers 7.12502
lthumb -0.0741519 68.3161
rfemur -107.556 -6.00194 63.615
rtibia 149.448
rfoot -17.0717 -6.44525
rtoes -21.858
lfemur -149.229 27.8604 -36.1606
ltibia 153.27
lfoot -26.3143 -13.6011
ltoes -11.1172
546
root -6.23353 7.48288 23.1957 21.3489 23.2926 -24.4333
lowerback 4.06838 4.17055 -0.398189
upperback -3.18593 5.12812 -9.8996
thorax -4.74806 2.41691 -10.7647
lowerneck -18.1885 4.81629 3.49942
upperneck 30.0466 5.78365 1.12944
head 13.1905 3.12097 0.806804
rclavicle -3.18055e-015 1.27222e-014
rhumerus 23.9207 25.0078 -66.7717
rradius 29.4979
rwrist 22.8325
rhand -2.63142 -4.63427
rfingers 7.12502
rthumb 23.0677 -33.2736
lclavicle -3.18055e-015 1.27222e-014
lhumerus -24.0544 14.6767 35.4135
lradius 22.0376
lwrist -2.60158
lhand -26.5451 38.3904
lfingers 7.12502
lthumb 0.0192392 68.3701
rfemur -107.392 -6.02157 63.7803
rtibia 149.383
rfoot -16.9802 -6.32386
rtoes -21.7366
lfemur -149.517 28.2017 -36.3253
ltibia 153.31
lfoot -26.4744 -13.9209
ltoes -11.0381
547
root -6.2339 7.47688 23.1871 21.0955 23.3866 -24.7588
lowerback 3.9827 4.21262 -0.526921
upperback -3.23875 5.17366 -9.99403
thorax -4.7504 2.44218 -10.7945
lowerneck -18.2139 4.77482 3.48343
upperneck 30.034 5.66981 1.31721
head 13.1822 3.09635 0.863804
rclavicle -9.22361e-014 4.45278e-014
rhumerus 24.0436 24.4597 -66.7834
rradius 29.452
rwrist 22.7272
rhand -2.76789 -4.64475
rfingers 7.12502
rthumb 22.9367 -33.3004
lclavicle -9.22361e-014 4.45278e-014
lhumerus -23.8364 14.6286 34.7117
lradius 22.0888
lwrist -2.53172
lhand -26.45 38.4552
lfingers 7.12502
lthumb 0.111098 68.4349
rfemur -107.238 -6.01826 63.929
rtibia 149.327
rfoot -16.877 -6.19504
rtoes -21.639
lfemur -149.857 28.5985 -36.5828
ltibia 153.386
lfoot -26.6767 -14.2774
ltoes -10.8187
548
root -6.23357 7.46964 23.1782 20.8447 23.4701 -25.0867
lowerback 3.88425 4.25626 -0.660876
upperback -3.2924 5.22197 -10.0858
thorax -4.74661 2.46928 -10.8171
lowerneck -18.2501 4.73166 3.45056
upperneck 30.0278 5.55477 1.51763
head 13.1779 3.071 0.928819
rclavicle 1.90833e-014 -5.40694e-014
rhumerus 24.1876 23.8924 -66.7841
rradius 29.3993
rwrist 22.6179
rhand -2.90698 -4.62513
rfingers 7.12502
rthumb 22.8032 -33.2973
lclavicle 1.90833e-014 -5.40694e-014
lhumerus -23.6066 14.5797 34.0158
lradius 22.1463
lwrist -2.45381
lhand -26.3513 38.5025
lfingers 7.12502
lthumb 0.206426 68.4822
rfemur -107.092 -6.00056 64.0665
rtibia 149.279
rfoot -16.7648 -6.07073
rtoes -21.5652
lfemur -150.232 29.0104 -36.8888
ltibia 153.482
lfoot -26.8875 -14.6452
ltoes -10.4847
549
root -6.23255 7.46151 23.1687 20.5913 23.5444 -25.4181
lowerback 3.78084 4.30078 -0.797843
upperback -3.34715 5.27179 -10.1747
thorax -4.74148 2.49734 -10.8342
lowerneck -18.285 4.68666 3.41231
upperneck 30.0193 5.43892 1.71788
head 13.1727 3.0447 0.994467
rclavicle 2.54444e-014 -3.18055e-014
rhumerus 24.3476 23.3096 -66.7778
rradius 29.3434
rwrist 22.5023
rhand -3.04348 -4.58339
rfingers 7.12502
rthumb 22.6722 -33.2716
lclavicle 2.54444e-014 -3.18055e-014
lhumerus -23.3676 14.5411 33.3216
lradius 22.2074
lwrist -2.36315
lhand -26.2454 38.5328
lfingers 7.12502
lthumb 0.308728 68.5123
rfemur -106.947 -5.97576 64.2007
rtibia 149.236
rfoot -16.6447 -5.95678
rtoes -21.5151
lfemur -150.606 29.3821 -37.1708
ltibia 153.574
lfoot -27.067 -14.9662
ltoes -10.1694
